<mxfile host="Electron" modified="2023-10-04T09:31:46.915Z" agent="5.0 (Windows NT 10.0; Win64; x64) AppleWebKit/537.36 (KHTML, like Gecko) draw.io/20.3.0 Chrome/104.0.5112.114 Electron/20.1.3 Safari/537.36" etag="i1yQxXUM4vtS4NFSsnO0" compressed="false" version="20.3.0" type="device">
  <diagram name="ND0010" id="HiyLTbJqQbgsW1TCgFa-">
    <mxGraphModel dx="782" dy="531" grid="1" gridSize="2" guides="1" tooltips="1" connect="1" arrows="1" fold="1" page="1" pageScale="1" pageWidth="1169" pageHeight="827" math="0" shadow="0">
      <root>
        <mxCell id="BCcmFvAbc4Agi9Vzn4Tp-0" />
        <object label="Symbol" Width="3" Height="2" UoM="mm" id="BCcmFvAbc4Agi9Vzn4Tp-124">
          <mxCell style="locked=1;" parent="BCcmFvAbc4Agi9Vzn4Tp-0" />
        </object>
        <mxCell id="BCcmFvAbc4Agi9Vzn4Tp-125" value="" style="triangle;whiteSpace=wrap;html=1;fontFamily=Helvetica;fontSize=16;fillColor=#000000;" parent="BCcmFvAbc4Agi9Vzn4Tp-124" vertex="1">
          <mxGeometry x="256" y="176" width="48" height="32" as="geometry" />
        </mxCell>
        <mxCell id="BCcmFvAbc4Agi9Vzn4Tp-128" value="Connection" style="" parent="BCcmFvAbc4Agi9Vzn4Tp-0" />
        <mxCell id="BCcmFvAbc4Agi9Vzn4Tp-135" value="Label" style="locked=1;" parent="BCcmFvAbc4Agi9Vzn4Tp-0" />
        <mxCell id="BCcmFvAbc4Agi9Vzn4Tp-137" value="Origo" style="locked=1;" parent="BCcmFvAbc4Agi9Vzn4Tp-0" />
        <object label="origo" id="BCcmFvAbc4Agi9Vzn4Tp-138">
          <mxCell style="vsdxID=1407;fillColor=none;gradientColor=none;shape=stencil(rVFbDsIgEDwNnyQU4glqvcfGblsilmZBS28vZGMsxg9j/JvZmX1kR5g2TLCg0CpE8hdcbR8nYY5CaztPSDZmJEwnTDt4wpH8be6ZL1CcBV39vUxI3KdKh1YbswPTEzuBzlmiVGmKau9zUKM+jlJJQrJBko8QrZ+rrQ5oRJnXyMHBWElhRVx25ebnw/5zVvPFWRm83jxY5zilvf4eSy5xpKZ7AA==);strokeColor=#ff0000;strokeWidth=1;points=[[0.5,0.5,0,0,0]];labelBackgroundColor=none;rounded=0;html=1;whiteSpace=wrap;aspect=fixed;noLabel=1;snapToPoint=1;" parent="BCcmFvAbc4Agi9Vzn4Tp-137" vertex="1">
            <mxGeometry x="300" y="188" width="7.874" height="7.87" as="geometry" />
          </mxCell>
        </object>
      </root>
    </mxGraphModel>
  </diagram>
</mxfile>
